HIERARCHY
ROOT Hips
{
	OFFSET 0.00 86.18 0.00
	CHANNELS 6 Xposition Yposition Zposition Yrotation Xrotation Zrotation
	JOINT RightUpLeg
	{
		OFFSET -9.25 0.00 0.00
		CHANNELS 6 Xposition Yposition Zposition Yrotation Xrotation Zrotation
		JOINT RightLeg
		{
			OFFSET 0.00 -42.00 0.00
			CHANNELS 6 Xposition Yposition Zposition Yrotation Xrotation Zrotation
			JOINT RightFoot
			{
				OFFSET 0.00 -42.00 0.00
				CHANNELS 6 Xposition Yposition Zposition Yrotation Xrotation Zrotation
				End Site
				{
					OFFSET 0 -1.14 11.36
				}
			}
		}
	}
	JOINT LeftUpLeg
	{
		OFFSET 9.25 0.00 0.00
		CHANNELS 6 Xposition Yposition Zposition Yrotation Xrotation Zrotation
		JOINT LeftLeg
		{
			OFFSET 0.00 -42.00 0.00
			CHANNELS 6 Xposition Yposition Zposition Yrotation Xrotation Zrotation
			JOINT LeftFoot
			{
				OFFSET 0.00 -42.00 0.00
				CHANNELS 6 Xposition Yposition Zposition Yrotation Xrotation Zrotation
				End Site
				{
					OFFSET 0 -1.14 11.36
				}
			}
		}
	}
	JOINT Spine
	{
		OFFSET 0.00 10.46 0.00
		CHANNELS 6 Xposition Yposition Zposition Yrotation Xrotation Zrotation
		JOINT Spine1
		{
			OFFSET 0.00 9.75 0.00
			CHANNELS 6 Xposition Yposition Zposition Yrotation Xrotation Zrotation
			JOINT Spine2
			{
				OFFSET 0.00 10.15 0.00
				CHANNELS 6 Xposition Yposition Zposition Yrotation Xrotation Zrotation
				JOINT Spine3
				{
					OFFSET 0.00 9.75 0.00
					CHANNELS 6 Xposition Yposition Zposition Yrotation Xrotation Zrotation
			 		JOINT Neck
					{
						OFFSET 0.00 10.42 0.00
						CHANNELS 6 Xposition Yposition Zposition Yrotation Xrotation Zrotation
						JOINT Head
						{
							OFFSET 0.00 9.50 0.00
							CHANNELS 6 Xposition Yposition Zposition Yrotation Xrotation Zrotation
							End Site
							{
								OFFSET 0 16.00 0
							}
						}    
					} 
					JOINT RightShoulder
	 					{
						OFFSET -3.20 6.94 0.00
						CHANNELS 6 Xposition Yposition Zposition Yrotation Xrotation Zrotation
						JOINT RightArm
						{
							OFFSET -16.00 0.00 0.00
							CHANNELS 6 Xposition Yposition Zposition Yrotation Xrotation Zrotation
							JOINT RightForeArm
							{
								OFFSET -26.50 0.00 0.00
								CHANNELS 6 Xposition Yposition Zposition Yrotation Xrotation Zrotation
								JOINT RightHand
								{
									OFFSET -26.00 0.00 0.00
									CHANNELS 6 Xposition Yposition Zposition Yrotation Xrotation Zrotation
									End Site
									{
										OFFSET -17.50 0 0
									}
								}
							}
						}	
					}
					JOINT LeftShoulder
					{
						OFFSET 3.20 6.94 0.00
						CHANNELS 6 Xposition Yposition Zposition Yrotation Xrotation Zrotation
						JOINT LeftArm
						{
							OFFSET 16.00 0.00 0.00
							CHANNELS 6 Xposition Yposition Zposition Yrotation Xrotation Zrotation
							JOINT LeftForeArm
							{
								OFFSET 26.50 0.00 0.00
								CHANNELS 6 Xposition Yposition Zposition Yrotation Xrotation Zrotation
								JOINT LeftHand
								{
									OFFSET 26.00 0.00 0.00
									CHANNELS 6 Xposition Yposition Zposition Yrotation Xrotation Zrotation
									End Site
									{
										OFFSET 17.50 0 0
									}
								}
							}
						}
					}     			
				}
			}
		} 
	} 
}
MOTION
Frames: 13
Frame Time: 0.010
-3.33 88.46 23.68 -103.24 -1.73 11.70 -9.09 -0.08 0.25 -33.91 -23.17 -27.66 0.36 -42.01 0.11 21.93 7.29 -0.73 0.94 -41.61 1.17 11.57 1.11 16.96 9.41 -0.01 0.04 13.83 1.33 -26.08 0.19 -42.00 0.29 -14.75 8.64 -2.02 1.87 -41.70 -1.15 11.77 -4.22 5.94 0.15 10.45 0.17 4.62 10.46 16.49 0.12 9.73 0.16 1.32 2.46 4.06 -0.01 10.16 0.09 2.52 3.58 6.60 0.09 9.74 0.17 0.07 -0.88 -0.89 0.31 10.43 0.15 0.09 -0.89 -0.89 0.24 9.55 0.08 6.23 -14.35 -17.31 -3.13 6.97 0.08 -12.12 6.79 1.05 -15.96 0.01 0.00 -6.29 -12.93 67.50 -26.53 0.03 -0.09 16.23 0.57 -3.19 -26.02 0.02 -0.10 4.49 2.23 -18.91 3.25 6.94 0.12 -6.70 4.79 -6.15 16.07 -0.01 -0.14 -10.63 -2.99 -71.03 26.50 0.05 -0.10 -46.01 21.65 -24.40 25.99 0.03 -0.05 -5.54 13.65 11.15 
-3.49 88.40 23.83 -103.38 -1.68 11.74 -9.08 -0.09 0.26 -33.61 -23.05 -28.03 0.38 -42.01 0.10 21.87 7.01 -0.58 0.95 -41.61 1.19 11.49 1.17 17.16 9.40 -0.01 0.04 13.76 1.33 -26.28 0.19 -42.00 0.29 -14.70 8.72 -2.00 1.87 -41.70 -1.13 11.95 -4.38 6.28 0.14 10.45 0.17 4.45 10.26 16.62 0.10 9.72 0.17 1.28 2.42 4.10 -0.02 10.16 0.09 2.45 3.53 6.66 0.08 9.74 0.17 0.09 -0.88 -0.88 0.26 10.43 0.16 0.11 -0.89 -0.89 0.21 9.53 0.08 6.50 -14.25 -17.22 -3.15 6.98 0.08 -12.22 6.82 1.13 -15.97 0.01 0.01 -6.35 -13.19 67.16 -26.48 -0.03 0.12 15.47 -0.84 -3.49 -26.01 -0.04 0.11 5.46 3.39 -18.50 3.24 6.94 0.11 -6.90 4.92 -6.12 16.06 -0.02 -0.14 -10.76 -3.06 -70.96 26.50 0.04 -0.09 -46.27 22.13 -24.54 25.99 0.03 -0.04 -5.41 13.73 10.61 
-3.65 88.35 23.96 -103.69 -1.60 11.66 -9.08 -0.10 0.28 -33.21 -22.86 -28.20 0.34 -42.00 0.10 21.99 6.73 -0.37 0.92 -41.61 1.19 11.18 1.30 17.11 9.39 0.00 0.01 13.86 1.29 -26.34 0.19 -42.00 0.29 -14.61 8.77 -1.98 1.86 -41.70 -1.13 12.16 -4.51 6.65 0.12 10.45 0.17 4.48 10.12 16.83 0.08 9.72 0.17 1.29 2.38 4.15 -0.03 10.16 0.08 2.46 3.46 6.74 0.07 9.74 0.16 0.10 -0.89 -0.87 0.21 10.43 0.16 0.11 -0.89 -0.88 0.18 9.52 0.08 6.62 -14.23 -17.10 -3.16 6.98 0.08 -12.39 6.77 1.19 -15.97 0.00 0.01 -6.51 -13.38 66.91 -26.48 -0.03 0.10 15.74 -0.89 -3.53 -26.01 -0.03 0.09 5.37 3.34 -18.49 3.23 6.94 0.10 -7.14 4.99 -6.14 16.06 -0.02 -0.15 -11.06 -3.11 -70.83 26.49 0.04 -0.08 -46.38 22.50 -24.57 25.99 0.03 -0.01 -5.30 13.85 10.10 
-3.79 88.31 24.07 -103.96 -1.56 11.56 -9.09 -0.11 0.29 -32.95 -22.66 -28.25 0.28 -42.00 0.10 22.30 6.44 -0.17 0.87 -41.61 1.18 10.74 1.44 16.88 9.40 0.01 0.01 13.88 1.37 -26.41 0.19 -42.00 0.31 -14.49 8.70 -1.87 1.85 -41.71 -1.13 12.31 -4.59 7.02 0.10 10.45 0.17 4.45 9.96 16.99 0.06 9.72 0.17 1.28 2.34 4.20 -0.03 10.16 0.08 2.45 3.40 6.81 0.06 9.74 0.16 0.11 -0.89 -0.86 0.17 10.43 0.16 0.12 -0.89 -0.87 0.16 9.51 0.09 6.74 -14.19 -16.88 -3.17 6.97 0.08 -12.45 6.75 1.26 -15.97 0.00 0.01 -6.76 -13.50 66.74 -26.49 -0.02 0.06 16.12 -0.86 -3.57 -26.01 -0.03 0.06 5.24 3.20 -18.52 3.22 6.94 0.09 -7.23 5.08 -6.12 16.05 -0.02 -0.14 -11.45 -3.10 -70.71 26.49 0.03 -0.06 -46.51 22.84 -24.54 25.99 0.04 -0.01 -5.29 14.01 9.57 
-3.93 88.27 24.16 -104.21 -1.52 11.46 -9.11 -0.11 0.29 -32.75 -22.47 -28.25 0.22 -42.00 0.12 22.67 6.16 -0.02 0.82 -41.61 1.15 10.26 1.55 16.62 9.41 0.01 0.00 13.82 1.37 -26.50 0.22 -42.00 0.33 -14.38 8.65 -1.82 1.85 -41.72 -1.14 12.59 -4.66 7.57 0.08 10.45 0.18 4.41 9.81 17.14 0.05 9.71 0.17 1.27 2.31 4.23 -0.04 10.16 0.08 2.43 3.34 6.87 0.05 9.74 0.16 0.12 -0.89 -0.85 0.13 10.43 0.16 0.13 -0.89 -0.85 0.13 9.51 0.08 6.80 -14.15 -16.63 -3.18 6.97 0.08 -12.48 6.75 1.32 -15.98 0.00 0.01 -7.09 -13.59 66.65 -26.49 -0.01 0.05 16.44 -0.95 -3.63 -26.01 -0.03 0.04 5.22 3.15 -18.57 3.21 6.94 0.09 -7.23 5.15 -6.07 16.04 -0.02 -0.13 -11.88 -3.13 -70.63 26.48 0.02 -0.05 -46.53 23.19 -24.51 25.99 0.04 0.01 -5.16 14.12 9.11 
-4.05 88.23 24.25 -104.40 -1.49 11.36 -9.12 -0.11 0.29 -32.59 -22.30 -28.24 0.21 -42.00 0.12 22.93 5.96 0.02 0.81 -41.60 1.12 9.89 1.58 16.45 9.44 0.01 -0.02 13.65 1.28 -26.65 0.23 -42.00 0.31 -14.12 8.66 -1.64 1.83 -41.73 -1.14 12.83 -4.70 8.17 0.07 10.45 0.18 4.36 9.67 17.28 0.04 9.71 0.17 1.26 2.27 4.27 -0.04 10.16 0.08 2.40 3.29 6.93 0.05 9.74 0.15 0.12 -0.89 -0.84 0.10 10.43 0.16 0.13 -0.89 -0.84 0.11 9.50 0.09 6.79 -14.15 -16.39 -3.18 6.97 0.08 -12.50 6.69 1.37 -15.98 0.00 0.01 -7.47 -13.65 66.58 -26.49 0.00 0.04 16.79 -0.99 -3.66 -26.01 -0.02 0.03 5.21 3.03 -18.67 3.21 6.94 0.09 -7.22 5.16 -6.02 16.03 -0.02 -0.12 -12.27 -3.17 -70.61 26.48 0.02 -0.05 -46.61 23.61 -24.45 25.99 0.04 0.01 -5.08 14.25 8.61 
-4.17 88.19 24.33 -104.47 -1.48 11.29 -9.13 -0.10 0.27 -32.39 -22.13 -28.30 0.20 -42.00 0.11 23.02 5.75 0.07 0.80 -41.59 1.05 9.54 1.77 16.26 9.42 0.01 -0.02 13.46 1.21 -26.72 0.22 -42.00 0.29 -14.03 8.67 -1.59 1.80 -41.74 -1.12 13.12 -4.72 8.92 0.06 10.45 0.19 4.26 9.50 17.40 0.04 9.71 0.18 1.23 2.24 4.31 -0.04 10.16 0.07 2.36 3.24 6.98 0.05 9.74 0.15 0.12 -0.89 -0.83 0.09 10.43 0.17 0.13 -0.89 -0.83 0.09 9.49 0.09 6.75 -14.15 -16.18 -3.18 6.97 0.08 -12.51 6.64 1.42 -15.98 0.00 0.01 -7.86 -13.68 66.52 -26.49 0.01 0.02 17.14 -1.06 -3.68 -26.01 -0.02 0.01 5.18 2.87 -18.79 3.21 6.93 0.09 -7.25 5.15 -5.95 16.02 -0.02 -0.12 -12.55 -3.23 -70.67 26.48 0.01 -0.04 -46.59 24.00 -24.39 25.99 0.04 0.02 -5.00 14.41 8.14 
-4.27 88.15 24.41 -104.61 -1.47 11.16 -9.13 -0.10 0.26 -32.04 -21.89 -28.36 0.20 -42.00 0.11 22.90 5.58 0.07 0.81 -41.57 0.98 9.24 2.00 16.21 9.44 -0.01 -0.05 13.13 1.01 -26.88 0.24 -42.00 0.27 -13.55 8.75 -1.38 1.77 -41.74 -1.08 13.28 -4.75 9.74 0.06 10.45 0.19 4.19 9.36 17.55 0.04 9.71 0.20 1.22 2.20 4.35 -0.04 10.16 0.08 2.33 3.19 7.04 0.06 9.74 0.15 0.12 -0.88 -0.82 0.07 10.43 0.19 0.14 -0.88 -0.82 0.07 9.49 0.10 6.77 -14.08 -15.98 -3.18 6.97 0.08 -12.46 6.61 1.47 -15.98 0.00 0.01 -8.23 -13.70 66.43 -26.49 0.02 0.02 17.40 -1.17 -3.68 -26.01 -0.01 0.01 5.19 2.73 -18.89 3.21 6.93 0.09 -7.24 5.13 -5.89 16.02 -0.03 -0.11 -12.77 -3.29 -70.80 26.48 0.00 -0.04 -46.65 24.42 -24.28 25.99 0.04 0.02 -4.82 14.49 7.67 
-4.37 88.11 24.51 -104.76 -1.47 11.00 -9.14 -0.10 0.26 -31.64 -21.61 -28.40 0.19 -41.99 0.10 22.58 5.40 0.08 0.79 -41.57 0.91 9.17 2.25 16.33 9.46 -0.01 -0.07 12.85 0.86 -26.97 0.27 -42.00 0.25 -13.18 8.81 -1.24 1.74 -41.75 -1.04 13.51 -4.79 10.55 0.06 10.45 0.20 4.15 9.23 17.72 0.04 9.71 0.20 1.21 2.17 4.39 -0.03 10.16 0.08 2.31 3.14 7.11 0.06 9.74 0.15 0.13 -0.88 -0.81 0.06 10.43 0.21 0.14 -0.88 -0.81 0.06 9.48 0.11 6.79 -14.01 -15.81 -3.18 6.97 0.09 -12.45 6.60 1.48 -15.98 0.00 0.00 -8.54 -13.75 66.31 -26.49 0.02 0.02 17.58 -1.41 -3.69 -26.01 -0.02 0.01 5.27 2.66 -18.95 3.21 6.92 0.10 -7.25 5.10 -5.87 16.02 -0.03 -0.10 -12.89 -3.35 -70.96 26.48 -0.00 -0.05 -46.71 24.79 -24.16 26.00 0.03 0.04 -4.52 14.51 7.30 
-4.47 88.06 24.61 -104.90 -1.50 10.82 -9.14 -0.10 0.27 -31.25 -21.30 -28.48 0.19 -41.99 0.09 22.09 5.25 0.11 0.76 -41.59 0.86 9.29 2.46 16.57 9.45 -0.01 -0.07 12.74 0.85 -26.94 0.25 -41.99 0.23 -13.07 8.80 -1.10 1.65 -41.76 -1.01 13.91 -4.82 11.20 0.05 10.45 0.21 4.10 9.09 17.92 0.04 9.71 0.22 1.20 2.14 4.45 -0.04 10.16 0.08 2.29 3.09 7.19 0.05 9.74 0.16 0.14 -0.87 -0.80 0.04 10.43 0.24 0.15 -0.87 -0.80 0.04 9.47 0.12 6.83 -13.88 -15.61 -3.18 6.97 0.09 -12.43 6.70 1.48 -15.98 -0.00 -0.01 -8.80 -13.87 66.14 -26.50 0.03 -0.00 17.79 -1.52 -3.66 -26.01 -0.01 -0.00 5.17 2.50 -18.96 3.21 6.92 0.10 -7.35 5.15 -5.96 16.02 -0.03 -0.09 -12.87 -3.41 -71.08 26.49 -0.00 -0.05 -46.80 25.09 -24.08 26.00 0.02 0.05 -4.28 14.60 7.01 
-4.57 88.02 24.71 -105.03 -1.54 10.65 -9.14 -0.11 0.27 -30.81 -20.97 -28.60 0.18 -41.98 0.09 21.48 5.13 0.16 0.72 -41.62 0.83 9.50 2.65 16.85 9.43 0.00 -0.08 12.69 0.83 -26.88 0.23 -41.99 0.21 -13.05 8.85 -1.04 1.59 -41.76 -0.98 14.15 -4.86 11.70 0.05 10.45 0.22 4.02 8.91 18.10 0.04 9.71 0.23 1.17 2.10 4.50 -0.04 10.16 0.09 2.26 3.03 7.27 0.05 9.74 0.17 0.14 -0.87 -0.79 0.01 10.43 0.27 0.16 -0.87 -0.79 0.03 9.46 0.14 6.90 -13.69 -15.40 -3.19 6.97 0.10 -12.46 6.82 1.46 -15.97 -0.01 -0.02 -8.93 -13.98 65.88 -26.50 0.01 -0.02 17.86 -1.74 -3.65 -26.00 -0.01 -0.01 5.14 2.50 -18.85 3.20 6.92 0.11 -7.49 5.13 -6.06 16.01 -0.03 -0.09 -12.71 -3.34 -71.23 26.49 -0.01 -0.05 -46.92 25.28 -24.02 26.00 0.00 0.07 -3.99 14.61 6.90 
-4.67 87.99 24.80 -105.06 -1.55 10.52 -9.13 -0.11 0.26 -30.38 -20.67 -28.77 0.18 -41.98 0.09 20.81 5.03 0.24 0.69 -41.66 0.82 9.71 2.78 17.12 9.41 0.01 -0.07 12.62 0.82 -26.82 0.21 -41.99 0.20 -13.17 8.89 -1.03 1.52 -41.75 -0.97 14.43 -4.89 12.02 0.05 10.45 0.22 3.93 8.69 18.27 0.04 9.71 0.23 1.15 2.05 4.54 -0.04 10.16 0.09 2.21 2.95 7.34 0.04 9.74 0.17 0.15 -0.86 -0.78 -0.02 10.43 0.29 0.17 -0.86 -0.78 0.02 9.46 0.15 6.93 -13.52 -15.23 -3.20 6.96 0.09 -12.41 6.99 1.41 -15.97 -0.01 -0.03 -9.15 -14.14 65.64 -26.50 0.00 -0.03 17.92 -1.87 -3.64 -26.00 -0.00 -0.02 5.05 2.53 -18.68 3.19 6.92 0.10 -7.71 5.04 -6.19 16.01 -0.03 -0.09 -12.49 -3.19 -71.35 26.48 -0.01 -0.05 -47.06 25.36 -24.03 26.00 -0.01 0.08 -3.81 14.61 6.93 
-4.76 87.96 24.89 -105.19 -1.55 10.40 -9.13 -0.11 0.28 -29.80 -20.33 -28.97 0.18 -41.98 0.10 20.23 4.94 0.35 0.64 -41.70 0.81 9.81 2.88 17.34 9.39 0.01 -0.08 12.65 0.77 -26.74 0.20 -41.98 0.17 -13.28 8.94 -1.03 1.46 -41.74 -0.96 14.69 -4.91 12.15 0.05 10.45 0.22 3.83 8.46 18.39 0.05 9.71 0.23 1.12 2.00 4.58 -0.05 10.16 0.09 2.16 2.87 7.39 0.03 9.74 0.17 0.16 -0.85 -0.77 -0.04 10.43 0.30 0.18 -0.85 -0.77 0.01 9.45 0.16 7.03 -13.29 -15.06 -3.20 6.96 0.08 -12.32 7.15 1.39 -15.96 -0.02 -0.04 -9.33 -14.23 65.37 -26.50 -0.01 -0.04 17.88 -1.85 -3.61 -26.00 0.01 -0.02 5.01 2.52 -18.53 3.19 6.92 0.08 -7.87 5.00 -6.29 16.00 -0.03 -0.10 -12.19 -3.02 -71.43 26.48 -0.01 -0.05 -47.22 25.36 -24.15 26.02 0.08 -0.13 -5.17 15.59 6.47 
